<svg width="512" height="512" viewBox="-0.5 0 32 32" fill="none" xmlns="http://www.w3.org/2000/svg">
  <defs>
    <linearGradient id="paint0_linear_103_1782" x1="15.2727" y1="0" x2="15.2727" y2="32" gradientUnits="userSpaceOnUse">
      <stop stop-color="#A2E458"></stop>
      <stop offset="1" stop-color="#5FC424"></stop>
    </linearGradient>
    <filter id="shadow" x="-20%" y="-20%" width="140%" height="140%">
      <feDropShadow dx="2" dy="2" stdDeviation="2" flood-color="rgba(0,0,0,0.3)"/>
    </filter>
  </defs>
  <rect width="32" height="32" rx="4" ry="4" fill="url(#paint0_linear_103_1782)" filter="url(#shadow)"/>
  <path d="M20 4C21.6569 4 23 5.34315 23 7V17C23 18.6569 21.6569 20 20 20H4C2.34315 20 1 18.6569 1 17V7C1 5.34315 2.34315 4 4 4H20ZM19.2529 6H4.74718L11.3804 11.2367C11.7437 11.5236 12.2563 11.5236 12.6197 11.2367L19.2529 6ZM3 7.1688V17C3 17.5523 3.44772 18 4 18H20C20.5523 18 21 17.5523 21 17V7.16882L13.8589 12.8065C12.769 13.667 11.231 13.667 10.1411 12.8065L3 7.1688Z" fill="#FFFF" transform="translate(4,4)"/>
</svg>
